<?xml version="1.0" encoding="UTF-8" standalone="no"?>
<svg
   xmlns:dc="http://purl.org/dc/elements/1.1/"
   xmlns:cc="http://creativecommons.org/ns#"
   xmlns:rdf="http://www.w3.org/1999/02/22-rdf-syntax-ns#"
   xmlns:svg="http://www.w3.org/2000/svg"
   xmlns="http://www.w3.org/2000/svg"
   xmlns:xlink="http://www.w3.org/1999/xlink"
   xmlns:sodipodi="http://sodipodi.sourceforge.net/DTD/sodipodi-0.dtd"
   xmlns:inkscape="http://www.inkscape.org/namespaces/inkscape"
   version="1.1"
   id="Layer_1"
   x="0px"
   y="0px"
   viewBox="0 0 128 128"
   xml:space="preserve"
   sodipodi:docname="axinite.svg"
   inkscape:version="1.0.2 (e86c870879, 2021-01-15)"
   width="128"
   height="128"><metadata
   id="metadata59"><rdf:RDF><cc:Work
       rdf:about=""><dc:format>image/svg+xml</dc:format><dc:type
         rdf:resource="http://purl.org/dc/dcmitype/StillImage" /><dc:title /></cc:Work></rdf:RDF></metadata><defs
   id="defs57"><linearGradient
     inkscape:collect="always"
     id="linearGradient875"><stop
       style="stop-color:#ff5618;stop-opacity:1"
       offset="0"
       id="stop871" /><stop
       style="stop-color:#ff5a1e;stop-opacity:0"
       offset="1"
       id="stop873" /></linearGradient><radialGradient
     inkscape:collect="always"
     xlink:href="#linearGradient875"
     id="radialGradient877"
     cx="64.000008"
     cy="157.48651"
     fx="64.000008"
     fy="157.48651"
     r="58.546621"
     gradientTransform="matrix(0.65679674,-0.00367292,6.1591836e-4,0.11010864,21.868005,88.280957)"
     gradientUnits="userSpaceOnUse" /></defs><sodipodi:namedview
   pagecolor="#ffffff"
   bordercolor="#666666"
   borderopacity="1"
   objecttolerance="10"
   gridtolerance="10"
   guidetolerance="10"
   inkscape:pageopacity="0"
   inkscape:pageshadow="2"
   inkscape:window-width="1920"
   inkscape:window-height="1027"
   id="namedview55"
   showgrid="false"
   inkscape:zoom="2.057805"
   inkscape:cx="177.35515"
   inkscape:cy="69.609608"
   inkscape:window-x="0"
   inkscape:window-y="0"
   inkscape:window-maximized="1"
   inkscape:current-layer="Layer_1"
   inkscape:document-rotation="0" />























<polygon
   style="fill:#f0e68c"
   points="374.634,180.966 423.724,75.034 512,180.966 "
   id="polygon2"
   transform="matrix(0.22869774,0,0,0.22869774,5.4533786,5.4533786)" /><polygon
   style="fill:#f5deb3"
   points="423.724,75.034 256,75.034 374.634,180.966 "
   id="polygon4"
   transform="matrix(0.22869774,0,0,0.22869774,5.4533786,5.4533786)" /><polygon
   style="fill:#ffff00"
   points="374.634,180.966 512,180.966 256,436.966 "
   id="polygon6"
   transform="matrix(0.22869774,0,0,0.22869774,5.4533786,5.4533786)" /><polygon
   style="fill:#ff8c00"
   points="137.366,180.966 88.276,75.034 0,180.966 "
   id="polygon8"
   transform="matrix(0.22869774,0,0,0.22869774,5.4533786,5.4533786)" /><polygon
   style="fill:#d2b48c"
   points="88.276,75.034 256,75.034 137.366,180.966 "
   id="polygon10"
   transform="matrix(0.22869774,0,0,0.22869774,5.4533786,5.4533786)" /><polygon
   style="fill:#eee8aa"
   points="374.634,180.966 256,75.034 137.366,180.966 "
   id="polygon12"
   transform="matrix(0.22869774,0,0,0.22869774,5.4533786,5.4533786)" /><polygon
   style="fill:#daa520"
   points="374.634,180.966 137.366,180.966 256,436.966 "
   id="polygon14"
   transform="matrix(0.22869774,0,0,0.22869774,5.4533786,5.4533786)" /><polygon
   style="fill:#ff4500"
   points="137.366,180.966 0,180.966 256,436.966 "
   id="polygon16"
   transform="matrix(0.22869774,0,0,0.22869774,5.4533786,5.4533786)" /><g
   id="g22"
   transform="matrix(0.22869774,0,0,0.22869774,5.4533786,5.4533786)">
	
	
</g><g
   id="g24"
   transform="matrix(0.22869774,0,0,0.22869774,5.4533786,5.4533786)">
</g><g
   id="g26"
   transform="matrix(0.22869774,0,0,0.22869774,5.4533786,5.4533786)">
</g><g
   id="g28"
   transform="matrix(0.22869774,0,0,0.22869774,5.4533786,5.4533786)">
</g><g
   id="g30"
   transform="matrix(0.22869774,0,0,0.22869774,5.4533786,5.4533786)">
</g><g
   id="g32"
   transform="matrix(0.22869774,0,0,0.22869774,5.4533786,5.4533786)">
</g><g
   id="g34"
   transform="matrix(0.22869774,0,0,0.22869774,5.4533786,5.4533786)">
</g><g
   id="g36"
   transform="matrix(0.22869774,0,0,0.22869774,5.4533786,5.4533786)">
</g><g
   id="g38"
   transform="matrix(0.22869774,0,0,0.22869774,5.4533786,5.4533786)">
</g><g
   id="g40"
   transform="matrix(0.22869774,0,0,0.22869774,5.4533786,5.4533786)">
</g><g
   id="g42"
   transform="matrix(0.22869774,0,0,0.22869774,5.4533786,5.4533786)">
</g><g
   id="g44"
   transform="matrix(0.22869774,0,0,0.22869774,5.4533786,5.4533786)">
</g><g
   id="g46"
   transform="matrix(0.22869774,0,0,0.22869774,5.4533786,5.4533786)">
</g><g
   id="g48"
   transform="matrix(0.22869774,0,0,0.22869774,5.4533786,5.4533786)">
</g><g
   id="g50"
   transform="matrix(0.22869774,0,0,0.22869774,5.4533786,5.4533786)">
</g><g
   id="g52"
   transform="matrix(0.22869774,0,0,0.22869774,5.4533786,5.4533786)">
</g>
<path
   style="fill:url(#radialGradient877);stroke:none;stroke-width:0.469277px;stroke-linecap:butt;stroke-linejoin:miter;stroke-opacity:1;fill-opacity:1"
   d="M 5.4533786,92.493341 64,105.38652 122.54662,92.493341 H 5.4533786"
   id="path869" /></svg>
